<svg
            width="300"
            height="280"
            viewBox="0 0 300 280"
            fill="none"
            xmlns="http://www.w3.org/2000/svg"
          >
            <path
              d="M130.3 216.95C130.3 216.95 103.15 216.95 94.2499 216.95C85.3499 216.95 83.6499 219.05 87.3999 220.6C91.1499 222.15 73.1999 221.4 70.1499 224.15C67.0499 226.9 74.9499 227.95 83.4999 227.95C92.0499 227.95 145.35 227.95 152.2 227.95C159.05 227.95 157.35 222.95 153.25 222.3C149.15 221.65 159.9 222.55 164 221.1C168.1 219.65 165.15 216.95 130.3 216.95Z"
              fill="#99ADF9"
            />
            <path
              d="M182.9 226.1C181.85 227.55 178.35 227.9 172.4 227.75C167.9 227.6 163.2 227.25 163.2 225.15C163.2 223.05 174.65 223.3 178.65 223.75C182.1 224.15 183.5 225.25 182.9 226.1Z"
              fill="#C5D3FF"
            />
            <path
              d="M79.3001 219.1C78.6001 220.15 76.2001 220.45 72.0001 220.45C68.8501 220.45 65.5501 220.3 65.4501 218.85C65.3501 217.35 73.4001 217.3 76.2501 217.55C78.6501 217.75 79.7001 218.45 79.3001 219.1Z"
              fill="#C5D3FF"
            />
            <path
              d="M255.35 215.7H237.5C236.1 215.7 234.95 214.55 234.95 213.15V194.7C234.95 193.3 236.1 192.15 237.5 192.15H255.35C256.75 192.15 257.9 193.3 257.9 194.7V213.15C257.9 214.55 256.75 215.7 255.35 215.7Z"
              fill="#C5DFFF"
            />
            <path
              d="M254.5 214.85H237.35C236 214.85 234.9 213.75 234.9 212.4V194.6C234.9 193.25 236 192.15 237.35 192.15H254.5C255.85 192.15 256.95 193.25 256.95 194.6V212.4C256.95 213.75 255.85 214.85 254.5 214.85Z"
              fill="#E1ECFF"
            />
            <path
              d="M246.1 210.9C250.076 210.9 253.3 207.676 253.3 203.7C253.3 199.724 250.076 196.5 246.1 196.5C242.123 196.5 238.9 199.724 238.9 203.7C238.9 207.676 242.123 210.9 246.1 210.9Z"
              fill="#C5DFFF"
            />
            <path
              d="M243.25 206.95C243 206.95 242.8 206.75 242.8 206.5V200.95C242.8 200.7 243 200.5 243.25 200.5C243.5 200.5 243.7 200.7 243.7 200.95V206.5C243.7 206.75 243.5 206.95 243.25 206.95Z"
              fill="#1C3177"
            />
            <path
              d="M248.45 206.95C248.2 206.95 248 206.75 248 206.5V200.95C248 200.7 248.2 200.5 248.45 200.5C248.7 200.5 248.9 200.7 248.9 200.95V206.5C248.9 206.75 248.7 206.95 248.45 206.95Z"
              fill="#1C3177"
            />
            <path
              d="M202.5 184.5C202.15 184.5 201.8 184.5 201.45 184.45C193.7 183.9 188.4 181.25 179.5 167.7C176.4 163 174.3 158.2 172.25 153.55C168.75 145.6 165.75 138.7 158.95 135.5C148.5 130.6 138.25 138.7 138.15 138.8C137.7 139.15 137.05 139.1 136.7 138.65C136.35 138.2 136.4 137.55 136.85 137.2C137.3 136.85 148.2 128.2 159.8 133.65C167.3 137.15 170.6 144.7 174.1 152.7C176.1 157.3 178.2 162.05 181.2 166.55C189.65 179.35 194.5 181.85 201.6 182.4C206.9 182.8 209.75 179.6 212.5 176.45C213.5 175.35 214.4 174.3 215.45 173.4C219.5 169.95 223.75 169.3 223.95 169.3C224.5 169.2 225.05 169.6 225.1 170.15C225.2 170.7 224.8 171.25 224.25 171.3C224.2 171.3 220.4 171.9 216.8 174.95C215.85 175.75 215 176.75 214.05 177.8C211.25 181 208.15 184.5 202.5 184.5Z"
              fill="#1C3177"
            />
            <path
              d="M231.6 165.85L235.8 162.3C236.25 161.95 236.85 162 237.2 162.45C237.5 162.85 237.45 163.4 237.05 163.75L232.8 167.5L231.6 165.85Z"
              fill="#1C3177"
            />
            <path
              d="M229 162.85L233.2 159.3C233.65 158.95 234.25 159 234.6 159.45C234.9 159.85 234.85 160.4 234.45 160.75L230.2 164.5L229 162.85Z"
              fill="#1C3177"
            />
            <path
              d="M234.55 167.7C234.55 167.7 232.9 169.65 230.35 171.9C227.8 174.1 224.5 173.7 223 172C222.9 171.9 222.85 171.8 222.75 171.7C221.45 169.9 221.4 167.45 223.35 165.7C225.4 163.8 228.8 161.1 228.8 161.1L232.9 165.85L234.55 167.7Z"
              fill="#E1ECFF"
            />
            <path
              d="M234.55 167.7C234.55 167.7 232.9 169.65 230.35 171.9C227.8 174.1 224.5 173.7 223 172C222.9 171.9 222.85 171.8 222.75 171.7C223.95 171.7 226 171.45 227.85 170.2C229.4 169.15 231.4 167.3 232.85 165.85L234.55 167.7Z"
              fill="#C5DFFF"
            />
            <path
              d="M158.05 206C158 206 157.9 206 157.85 206C154.45 205.95 145.6 199.3 143.35 196.2C141.05 193.1 139 189.15 141.8 186.6C142.35 186.1 143.15 185.75 144.05 185.6C145.4 185.35 147.05 185.65 148.45 186.55C150.85 188.1 157.6 195.95 159.5 199.3C161.35 202.6 161.3 205.95 158.05 206Z"
              fill="#1C3177"
            />
            <path
              d="M158.05 206C158.55 205.7 158.9 205.2 159.2 204.2C159.7 202.45 157.95 198.95 152.2 192.25C148.75 188.2 145.8 186.4 144.05 185.6C145.4 185.35 147.05 185.65 148.45 186.55C150.85 188.1 157.6 195.95 159.5 199.3C161.35 202.6 161.3 205.95 158.05 206Z"
              fill="#384D89"
            />
            <path
              d="M141.15 188.75C141.65 187.35 144.55 187.6 147.05 190.05C149.55 192.5 153.35 197.35 152.4 199.45C151.45 201.55 147.85 199.85 144.9 196.95C141.95 194.05 140.35 191 141.15 188.75Z"
              fill="#142966"
            />
            <path
              d="M147.45 195C147.35 196.6 146.75 197.6 146.75 197.6C146.75 197.6 133.3 204 116.45 192.25C99.3 180.3 99.25 165.4 99.25 165.25C108.05 156.65 117.95 166.1 117.95 166.1C117.95 166.1 118.55 171.45 121.25 176.85C122.8 179.95 125.05 183.1 128.25 185.2C136.25 190.45 144.55 188.85 144.55 188.85C144.55 188.85 146.15 189.35 147.1 192.4C147.45 193.3 147.55 194.25 147.45 195Z"
              fill="#E1ECFF"
            />
            <path
              d="M147.45 195C147.35 196.6 146.75 197.6 146.75 197.6C146.75 197.6 133.3 204 116.45 192.25C99.3 180.3 99.25 165.4 99.25 165.25C108.05 156.65 117.95 166.1 117.95 166.1C117.95 166.1 118.55 171.45 121.25 176.85C119.9 177.85 118.2 178.9 116.9 179.3C114.15 180.1 111.2 180.1 111.2 180.1C111.2 180.1 119.65 192.75 132.15 195.05C138.9 196.2 144.1 195.7 147.45 195Z"
              fill="#C5DFFF"
            />
            <path
              d="M128.6 197.55C128.35 197.55 128.1 197.4 128 197.1C127.85 196.75 128.05 196.4 128.4 196.25C128.45 196.25 131.15 195.2 131.95 193C132.8 190.75 132.1 188.95 132.1 188.95C131.95 188.6 132.15 188.25 132.45 188.1C132.8 187.95 133.15 188.15 133.3 188.45C133.35 188.55 134.15 190.75 133.15 193.45C132.1 196.25 128.95 197.4 128.8 197.45C128.75 197.55 128.65 197.55 128.6 197.55Z"
              fill="#C5DFFF"
            />
            <path
              d="M117 192.4C116.65 192.4 116.35 192.15 116.35 191.8C116.35 191.45 116.6 191.15 116.95 191.1C117 191.1 120.5 190.85 122.25 188.55C124 186.25 123.9 183.9 123.9 183.85C123.85 183.5 124.15 183.15 124.5 183.15C124.85 183.1 125.2 183.4 125.2 183.75C125.2 183.85 125.4 186.6 123.3 189.35C121.15 192.1 117.2 192.35 117 192.4Z"
              fill="#C5DFFF"
            />
            <path
              d="M93.2998 182.95C93.0998 183.4 92.8498 183.85 92.4998 184.3C91.8498 185.15 91.0998 185.65 90.3998 186C89.3998 186.5 88.5998 186.6 88.5998 186.6C88.5998 186.6 81.5498 179.75 75.3998 167.55C69.2498 155.4 68.7998 141.4 68.7998 141.4C69.3498 141.1 69.8998 140.85 70.3998 140.65C72.2998 139.9 74.0498 139.85 75.4998 140.05C77.6998 140.35 79.0998 141.3 79.0998 141.3C79.0998 141.3 79.4998 152.9 83.5998 163.35C87.6998 173.85 93.6998 180.05 93.6998 180.05C93.6998 180.05 93.9498 181.4 93.2998 182.95Z"
              fill="#E1ECFF"
            />
            <path
              d="M93.2998 182.95C91.0998 181 86.8998 176.55 82.8498 167.95C77.9998 157.65 76.0498 144.4 75.5498 140.05C77.7498 140.35 79.1498 141.3 79.1498 141.3C79.1498 141.3 79.5498 152.9 83.6498 163.35C87.7498 173.85 93.7498 180.05 93.7498 180.05C93.7498 180.05 93.9498 181.4 93.2998 182.95Z"
              fill="#F8FBFF"
            />
            <path
              d="M90.3998 186C89.3998 186.5 88.5998 186.6 88.5998 186.6C88.5998 186.6 81.5498 179.75 75.3998 167.55C69.2498 155.4 68.7998 141.4 68.7998 141.4C69.3498 141.1 69.8998 140.85 70.3998 140.65C70.7498 145.15 72.3998 159.95 79.3998 171.55C84.1998 179.45 88.0498 183.75 90.3998 186Z"
              fill="#C5DFFF"
            />
            <path
              d="M104.35 193.2C104.35 193.2 101.75 194.75 98.6996 194.05C95.6496 193.35 94.4996 192.35 94.4996 192.35C94.4996 192.35 93.4996 190.85 94.2496 190C94.2996 189.95 94.2996 189.95 94.3496 189.9C95.2996 189.05 96.5996 188.9 96.5996 188.9C96.5996 188.9 98.3996 190.3 99.6996 190.75C101 191.2 103.3 190.75 104.15 191.3C104.55 191.55 104.6 192 104.55 192.4C104.55 192.85 104.35 193.2 104.35 193.2Z"
              fill="#E1ECFF"
            />
            <path
              d="M104.35 193.2C104.35 193.2 101.75 194.75 98.6996 194.05C95.6496 193.35 94.4996 192.35 94.4996 192.35C94.4996 192.35 93.4996 190.85 94.2496 190C95.1496 190.85 97.2996 192.7 99.7996 193C101.85 193.25 103.55 192.8 104.55 192.4C104.55 192.85 104.35 193.2 104.35 193.2Z"
              fill="#C5DFFF"
            />
            <path
              d="M103.4 191.8C100.8 192.2 98.9496 191.5 97.5496 190.75C96.1496 190 95.5996 189.05 95.5996 189.05C95.5996 189.05 95.5996 187.9 96.3496 187.3C96.7496 186.95 97.3996 186.8 98.3996 187.1C98.3996 187.1 100.35 188.8 103.6 187.65C106.85 186.5 106.65 185.8 107.35 185.6C107.85 185.45 108.5 186.2 108.65 187.05C108.75 187.45 108.7 187.85 108.55 188.2C108 189.3 106 191.35 103.4 191.8Z"
              fill="#E1ECFF"
            />
            <path
              d="M103.4 191.8C100.8 192.2 98.9496 191.5 97.5496 190.75C96.1496 190 95.5996 189.05 95.5996 189.05C95.5996 189.05 95.5996 187.9 96.3496 187.3C97.5496 188.5 100.15 190.65 103 190.1C105.8 189.55 107.8 187.9 108.7 187.05C108.8 187.45 108.75 187.85 108.6 188.2C108 189.3 106 191.35 103.4 191.8Z"
              fill="#C5DFFF"
            />
            <path
              d="M102.85 188.5C100.35 188.9 98.5997 188.2 97.2997 187.5C95.9497 186.8 95.4497 185.9 95.4497 185.9C95.4497 185.9 95.4497 184.8 96.1497 184.2C96.5497 183.85 97.1497 183.7 98.0997 184C98.0997 184 99.9497 185.6 103.05 184.5C106.15 183.4 105.95 182.75 106.6 182.55C107.05 182.4 107.7 183.15 107.85 183.95C107.95 184.3 107.9 184.7 107.75 185.05C107.2 186.15 105.3 188.1 102.85 188.5Z"
              fill="#E1ECFF"
            />
            <path
              d="M102.85 188.5C100.35 188.9 98.5997 188.2 97.2997 187.5C95.9497 186.8 95.4497 185.9 95.4497 185.9C95.4497 185.9 95.4497 184.8 96.1497 184.2C97.2497 185.35 99.7497 187.4 102.45 186.85C105.1 186.3 107 184.75 107.85 183.95C107.95 184.3 107.9 184.7 107.75 185.05C107.2 186.15 105.3 188.1 102.85 188.5Z"
              fill="#C5DFFF"
            />
            <path
              d="M102.5 186C100.35 186.7 98.6499 186.35 97.3999 185.9C96.0999 185.45 95.5499 184.75 95.5499 184.75C95.5499 184.75 95.3999 183.75 95.9999 183.15C96.2999 182.8 96.8499 182.6 97.7499 182.7C97.7499 182.7 99.5999 183.85 102.25 182.5C104.9 181.1 104.65 180.55 105.2 180.25C105.6 180.05 106.25 180.6 106.5 181.3C106.6 181.6 106.65 181.95 106.55 182.3C106.15 183.3 104.65 185.3 102.5 186Z"
              fill="#E1ECFF"
            />
            <path
              d="M102.5 186C100.35 186.7 98.6499 186.35 97.3999 185.9C96.0999 185.45 95.5499 184.75 95.5499 184.75C95.5499 184.75 95.3999 183.75 95.9999 183.15C97.1499 184 99.5999 185.5 101.95 184.65C104.3 183.8 105.8 182.15 106.45 181.3C106.55 181.6 106.6 181.95 106.5 182.3C106.15 183.3 104.65 185.3 102.5 186Z"
              fill="#C5DFFF"
            />
            <path
              d="M100.75 183.6C100.75 183.6 100.6 184.45 100.25 185.6C99.8496 186.9 99.2496 188.5 98.3496 189.75C97.9496 190.25 97.5496 190.7 97.1496 191.05C95.7996 192.3 94.5496 192.55 94.5496 192.55C94.5496 192.55 90.6996 188.85 89.5996 187.6C88.4996 186.4 87.5996 185.1 87.5996 185.1C87.5996 185.1 87.2996 183.7 87.5996 182.2C87.7496 181.4 88.0496 180.55 88.6496 179.9C88.9496 179.6 89.2996 179.35 89.5996 179.15C91.2496 178.3 93.1496 178.95 93.1496 178.95C93.1496 178.95 96.8496 181.25 98.4996 182.15C100.15 183.05 100.75 183.6 100.75 183.6Z"
              fill="#E1ECFF"
            />
            <path
              d="M100.75 183.6C100.75 183.6 100.6 184.45 100.25 185.6C99.4996 185.2 98.1496 184.35 96.3496 183.05C93.9996 181.4 90.6496 179.7 89.5996 179.15C91.2496 178.3 93.1496 178.95 93.1496 178.95C93.1496 178.95 96.8496 181.25 98.4996 182.15C100.15 183.05 100.75 183.6 100.75 183.6Z"
              fill="#F8FBFF"
            />
            <path
              d="M97.1496 191C95.7996 192.2 94.5496 192.5 94.5496 192.5C94.5496 192.5 90.6996 188.75 89.5996 187.55C88.4996 186.35 87.5996 185.05 87.5996 185.05C87.5996 185.05 87.2996 183.65 87.5996 182.15C89.1496 183.9 93.2996 188.4 96.1996 190.3C96.5496 190.6 96.8996 190.8 97.1496 191Z"
              fill="#C5DFFF"
            />
            <path
              d="M82.8502 178.2C82.1002 178.15 81.6502 177.9 81.6002 177.9C81.3002 177.75 81.2002 177.35 81.3502 177.05C81.5002 176.75 81.8502 176.6 82.1502 176.75C82.2002 176.8 83.6002 177.45 85.4502 176.25C87.3002 175.05 87.6002 173.55 87.6002 173.5C87.6502 173.15 87.9502 172.9 88.3002 173C88.6002 173.05 88.8502 173.4 88.8002 173.75C88.8002 173.85 88.4502 175.85 86.1002 177.4C84.7502 178.15 83.6502 178.25 82.8502 178.2Z"
              fill="#C5DFFF"
            />
            <path
              d="M77.4998 168.15C76.4498 168.05 75.7498 167.7 75.6998 167.7C75.3998 167.55 75.2998 167.15 75.4498 166.85C75.5998 166.55 75.9498 166.4 76.1998 166.55C76.2498 166.6 77.9998 167.45 80.2998 166.4C82.5498 165.4 82.9498 163.95 82.9498 163.85C83.0498 163.5 83.3498 163.3 83.6498 163.4C83.9498 163.5 84.1498 163.85 84.0498 164.2C84.0498 164.3 83.4998 166.3 80.6998 167.6C79.4498 168.15 78.3498 168.25 77.4998 168.15Z"
              fill="#C5DFFF"
            />
            <path
              d="M73.7 156.9C72.25 156.8 71.5 156.2 71.45 156.15C71.2 155.95 71.15 155.55 71.35 155.25C71.55 154.95 71.9 154.9 72.2 155.15C72.25 155.15 73.35 156 75.8 155.5C78.9 154.85 79.75 153.65 79.8 153.6C80 153.3 80.35 153.25 80.65 153.45C80.9 153.65 80.95 154.05 80.75 154.35C80.65 154.5 79.55 155.95 76.05 156.75C75.1 156.95 74.35 156.95 73.7 156.9Z"
              fill="#C5DFFF"
            />
            <path
              d="M81.0997 148.55C81.0997 148.55 78.0997 150.1 73.8497 150.05C71.7497 150 70.2997 149.6 69.3497 149.15C68.3497 148.7 67.8997 148.25 67.8997 148.25C67.8997 148.25 67.9497 147.35 67.7997 144.4C67.2997 135.1 71.4997 133.9 74.2497 133.8C74.8997 133.8 75.5997 133.9 76.1997 134.1C78.1997 134.8 79.8997 136.6 80.5497 138.8C81.3997 141.85 81.0997 148.55 81.0997 148.55Z"
              fill="#1C3177"
            />
            <path
              d="M74.9498 139.55C71.7998 141.25 70.4999 140.15 70.4999 140.15C70.4999 140.15 69.7499 142.7 69.3999 147.75C69.3499 148.25 69.3499 148.75 69.2999 149.15C68.2999 148.7 67.8499 148.25 67.8499 148.25C67.8499 148.25 67.8999 147.35 67.7499 144.4C67.2499 135.1 71.4498 133.9 74.1998 133.8C74.8498 133.8 75.5498 133.9 76.1498 134.1C76.9498 135.45 77.8498 138 74.9498 139.55Z"
              fill="#384D89"
            />
            <path
              d="M138.8 155.15C138.65 155.95 138.5 156.7 138.3 157.45C137.1 162.1 135 165.85 132.05 168.3C123.6 175.35 112 179.1 97.1 169.45C85.2 161.75 74.25 144.3 70.3 137.55C69.3 135.85 68.75 134.8 68.75 134.8C68.75 134.8 75.6 134.45 86.4 129.5C90.85 127.45 96 124.6 101.65 120.7C111.4 113.9 117.05 107.55 120.3 102.6C124.15 96.8001 124.7 93.0001 124.7 93.0001C124.7 93.0001 125.65 94.7501 127.3 98.6001C129.3 103.35 132.3 111.25 135.7 122.95C139.35 135.55 140.35 146.7 138.8 155.15Z"
              fill="#E1ECFF"
            />
            <path
              d="M127.3 98.6001C126.15 100.9 124.55 103.6 122.45 106.55C118.35 112.15 112.25 118.6 103.25 124.4C97.7002 128 92.7502 130.6 88.4002 132.5C79.5002 136.45 73.3502 137.35 70.2502 137.5C69.2502 135.8 68.7002 134.75 68.7002 134.75C68.7002 134.75 75.5502 134.4 86.3502 129.45C90.8002 127.4 95.9502 124.55 101.6 120.65C111.35 113.85 117 107.5 120.25 102.55C124.1 96.7501 124.65 92.9501 124.65 92.9501C124.65 92.9501 125.7 94.8001 127.3 98.6001Z"
              fill="#1C3177"
            />
            <path
              d="M138.3 157.45C137.1 162.1 135 165.85 132.05 168.3C123.6 175.35 112 179.1 97.1 169.45C85.2 161.75 74.25 144.3 70.3 137.55C69.3 135.85 68.75 134.8 68.75 134.8C68.75 134.8 75.6 134.45 86.4 129.5C90.65 136.1 100.05 149.75 109.3 157.8C120.05 167.2 132.3 161.65 138.3 157.45Z"
              fill="#C5DFFF"
            />
            <path
              d="M88.4002 132.55C79.5002 136.5 73.3502 137.4 70.2502 137.55C69.2502 135.85 68.7002 134.8 68.7002 134.8C68.7002 134.8 75.5502 134.45 86.3502 129.5C86.9502 130.4 87.6502 131.45 88.4002 132.55Z"
              fill="#142966"
            />
            <path
              d="M137.4 150.3C136.15 145.15 134.45 138.65 132.3 131.75C128.85 120.55 124.95 111.9 122.8 108.15C125.8 103.6 126.35 101.75 126.35 101.75C126.35 101.75 127.1 103.15 128.4 106.15C129.95 109.85 132.3 116.05 134.95 125.2C137.85 135 138.65 143.7 137.4 150.3Z"
              fill="#F8FBFF"
            />
            <path
              d="M127.3 98.6001C126.15 100.9 124.55 103.6 122.45 106.55C121.65 105 120.95 103.65 120.3 102.55C124.15 96.7501 124.7 92.9501 124.7 92.9501C124.7 92.9501 125.7 94.8001 127.3 98.6001Z"
              fill="#384D89"
            />
            <path
              d="M111.65 154.5C111.65 154.5 107.15 157.9 97.9999 161.7C95.4499 162.75 92.9499 163.65 90.6999 164.4C90.4999 164.2 90.2999 164 90.0999 163.8C83.6999 157.65 77.9499 149.7 74.0499 143.7C73.7999 143.35 73.5999 143 73.3999 142.7C73.7999 142.6 80.4999 140.9 88.6499 137.25C97.0999 133.5 99.2499 131.8 99.2499 131.8L111.65 154.5Z"
              fill="#E1ECFF"
            />
            <path
              d="M110.25 154.45C110.25 154.45 106.2 157.7 97.6 161.1C94.95 162.15 92.3 163.05 90.05 163.8C83.65 157.65 77.9 149.7 74 143.7L74.8 143.5C74.8 143.5 81.1 141.9 88.9 138.45C96.7 134.95 98.9 133.8 98.9 133.8L110.25 154.45Z"
              fill="#1C3177"
            />
            <path
              d="M87.95 156.4C87.8 156.4 87.6 156.35 87.5 156.25L82 151.35L81.65 152.4C81.5 152.75 81.15 152.95 80.8 152.8C80.45 152.65 80.25 152.3 80.4 151.95L81.1 149.95C81.2 149.75 81.35 149.55 81.55 149.5C81.75 149.45 82 149.5 82.2 149.65L87.05 153.95L86.8 152C86.75 151.7 86.9 151.4 87.2 151.3L103.75 144.15C104.1 144 104.5 144.15 104.65 144.5C104.8 144.85 104.65 145.25 104.3 145.4L88.2 152.35L88.65 155.6C88.7 155.9 88.55 156.15 88.3 156.3C88.15 156.35 88.05 156.4 87.95 156.4Z"
              fill="#FFCE94"
            />
            <path
              d="M124.7 93.0001C124.7 93.0001 123.95 98.3501 118.2 105.8C114.9 110.1 109.9 115.1 102.4 120.2C90.1 128.6 80.4 132.15 74.6 133.7C70.8 134.7 68.7 134.8 68.7 134.8C68.7 134.8 56.15 113.4 58.2 94.0001C58.75 88.9501 60.3 84.7501 62.65 81.3001C64.35 78.7501 66.45 76.6501 68.85 74.9001C75.8 69.9001 85.15 68.1501 94.25 69.2501C110.85 71.3001 124.7 93.0001 124.7 93.0001Z"
              fill="#FEC272"
            />
            <path
              d="M124.7 93C124.7 93 124.35 95.4 122.45 99.2C121.5 101.1 120.15 103.35 118.2 105.85C114.9 110.15 109.9 115.15 102.4 120.25C89.1502 129.25 78.9002 132.7 73.3502 134.05C70.3502 134.75 68.7002 134.85 68.7002 134.85C68.7002 134.7 68.7502 123.2 87.4502 108.6C106.25 93.85 124.7 93 124.7 93Z"
              fill="#FCAD4F"
            />
            <path
              d="M122.45 99.2001C121.5 101.1 120.15 103.35 118.2 105.85C114.9 110.15 109.9 115.15 102.4 120.25C89.1501 129.25 78.9001 132.7 73.3501 134.05C75.4501 129.25 80.0501 122.15 90.4001 114.05C103.1 104.1 115.65 100.5 122.45 99.2001Z"
              fill="#F99D3A"
            />
            <path
              d="M124.7 93.0001C124.7 93.0001 123.95 98.3501 118.2 105.8C115 100.3 112.15 96.8501 112.15 96.8501C112.15 96.8501 104.8 103.5 98.7998 98.7501C92.7998 93.9501 97.2998 85.1501 97.2998 85.1501C97.2998 85.1501 91.2498 78.6501 81.3998 76.5501C76.4998 75.5001 72.0498 75.0501 68.7998 74.9001C75.7498 69.9001 85.0998 68.1501 94.1998 69.2501C110.85 71.3001 124.7 93.0001 124.7 93.0001Z"
              fill="#FFDBB3"
            />
            <path
              d="M74.6498 133.7C70.8498 134.7 68.7498 134.8 68.7498 134.8C68.7498 134.8 56.1998 113.4 58.2498 94C58.7998 88.95 60.3498 84.75 62.6998 81.3C62.1498 87.05 61.6998 100.35 66.2998 114.7C68.5998 122 71.6998 128.5 74.6498 133.7Z"
              fill="#FFDBB3"
            />
            <path
              d="M131.75 220.8C131.75 221.1 131.75 221.4 131.7 221.75C131.5 224.7 122.45 225.25 116.15 225.55C109.95 225.85 103.4 224.1 105.65 222.05C105.7 222 105.7 222 105.75 221.95C107.35 220.6 110.45 219.05 113.9 217.8C115.9 217.05 117.95 216.45 120 215.95C122.7 215.3 128.2 214 130 215.35C130.35 215.6 130.65 216 130.9 216.45C131.45 217.5 131.75 219.05 131.75 220.8Z"
              fill="#1C3177"
            />
            <path
              d="M131.75 220.8C131.75 221.1 131.75 221.4 131.7 221.75C131.5 224.7 122.45 225.25 116.15 225.55C109.95 225.85 103.4 224.1 105.65 222.05C107 222.85 109.95 223.8 116.1 223.55C124.5 223.2 129.6 221.8 131.75 220.8Z"
              fill="#384D89"
            />
            <path
              d="M130.85 216.45C130.45 216.85 129.8 217.25 129.05 217.65C126.65 218.85 119.35 220.15 114.9 219.4C112.95 219.05 113.1 218.45 113.85 217.8C115.85 217.05 117.9 216.45 119.95 215.95C122.65 215.3 128.15 214 129.95 215.35C130.3 215.6 130.6 216 130.85 216.45Z"
              fill="#142966"
            />
            <path
              d="M119.6 192.45C121.6 205.25 128.9 215.05 128.9 215.05C128.9 215.05 128.2 216.05 126.8 216.95C126.2 217.35 125.5 217.65 124.65 217.95C123.35 218.35 121.95 218.35 120.75 218.25C119.3 218.1 118.25 217.8 118.25 217.8C118.25 217.8 105.8 201.75 104.25 183.45C102.7 165.15 112.55 155.95 112.55 155.95C112.55 155.95 112.65 155.9 112.75 155.8C113.75 155.15 118.15 152.75 123.45 155.75C123.85 155.95 124.2 156.2 124.5 156.4C128.55 159.05 129.15 161.75 129.15 161.75C129.15 161.75 126.4 164.15 124.35 167.75C122.3 171.25 117.6 179.65 119.6 192.45Z"
              fill="#E1ECFF"
            />
            <path
              d="M119.6 192.45C121.6 205.25 128.9 215.05 128.9 215.05C128.9 215.05 128.2 216.05 126.8 216.95C123.15 211.9 114.4 196.6 114.7 182.05C114.95 168.75 121.85 159.5 124.55 156.4C128.6 159.05 129.2 161.75 129.2 161.75C129.2 161.75 126.45 164.15 124.4 167.75C122.3 171.25 117.6 179.65 119.6 192.45Z"
              fill="#C5DFFF"
            />
            <path
              d="M120.7 218.2C119.25 218.05 118.2 217.75 118.2 217.75C118.2 217.75 105.75 201.7 104.2 183.4C102.65 165.1 112.5 155.9 112.5 155.9C112.5 155.9 112.6 155.85 112.7 155.75C110.8 159.65 106.55 169.75 106.95 181.15C107.45 195.8 113.8 207.1 118.25 214.3C119.1 215.75 119.95 217.05 120.7 218.2Z"
              fill="#F8FBFF"
            />
            <path
              d="M111.2 205.2C111.05 205.2 110.85 205.15 110.75 205C110.5 204.75 110.45 204.3 110.7 204.05C110.75 204 112.2 202.5 115.1 201.6C118.05 200.7 121.3 201.7 121.45 201.75C121.8 201.85 122 202.25 121.9 202.6C121.8 202.95 121.4 203.15 121.05 203.05C121 203.05 118.05 202.15 115.5 202.9C112.95 203.7 111.7 204.95 111.7 205C111.6 205.15 111.4 205.2 111.2 205.2Z"
              fill="#C5DFFF"
            />
            <path
              d="M106.05 189.2C105.8 189.2 105.6 189.1 105.45 188.85C105.25 188.5 105.35 188.1 105.7 187.9C105.8 187.85 108.75 186.15 112.1 186C115.5 185.8 118.35 187.75 118.45 187.85C118.75 188.05 118.85 188.5 118.6 188.8C118.4 189.1 117.95 189.2 117.65 188.95C117.6 188.95 115.1 187.2 112.15 187.35C109.1 187.5 106.4 189.05 106.35 189.1C106.3 189.2 106.15 189.2 106.05 189.2Z"
              fill="#C5DFFF"
            />
            <path
              d="M119.75 176C119.6 176 119.4 175.95 119.3 175.8C119.25 175.75 115.55 172.4 111.85 171.95C108.25 171.5 106.05 173.05 106.05 173.1C105.75 173.3 105.3 173.25 105.1 172.95C104.9 172.65 104.95 172.2 105.25 172C105.35 171.9 107.9 170.05 112.05 170.6C116.15 171.15 120.05 174.65 120.25 174.8C120.55 175.05 120.55 175.5 120.3 175.75C120.1 175.9 119.9 176 119.75 176Z"
              fill="#C5DFFF"
            />
            <path
              d="M163.4 161.8C163.4 161.8 162.45 165.05 159.45 167C156.45 168.95 154.75 169.15 154.75 169.15C154.75 169.15 152.8 168.85 152.8 167.6C152.8 167.55 152.8 167.5 152.8 167.45C152.9 166.1 153.85 164.9 153.85 164.9C153.85 164.9 156.4 164.45 157.8 163.75C159.2 163.05 160.7 160.8 161.8 160.55C162.35 160.45 162.7 160.7 163 161.05C163.3 161.4 163.4 161.8 163.4 161.8Z"
              fill="#E1ECFF"
            />
            <path
              d="M163.4 161.8C163.4 161.8 162.45 165.05 159.45 167C156.45 168.95 154.75 169.15 154.75 169.15C154.75 169.15 152.8 168.85 152.8 167.6C154.15 167.5 157.35 167.1 159.6 165.3C161.45 163.85 162.5 162.1 163 161C163.3 161.4 163.4 161.8 163.4 161.8Z"
              fill="#C5DFFF"
            />
            <path
              d="M161.55 161.55C159.75 164 157.7 164.95 156 165.55C154.3 166.15 153.15 165.9 153.15 165.9C153.15 165.9 152.25 165.05 152.4 164C152.45 163.4 152.85 162.75 153.9 162.15C153.9 162.15 156.75 161.8 158.55 158.3C160.35 154.8 159.6 154.45 160.05 153.75C160.35 153.25 161.45 153.3 162.2 153.75C162.55 153.95 162.85 154.3 162.95 154.7C163.4 155.95 163.35 159.1 161.55 161.55Z"
              fill="#E1ECFF"
            />
            <path
              d="M161.55 161.55C159.75 164 157.7 164.95 156 165.55C154.3 166.15 153.15 165.9 153.15 165.9C153.15 165.9 152.25 165.05 152.4 164C154.25 163.9 158.05 163.4 159.9 160.65C161.75 157.95 162.15 155.1 162.2 153.75C162.55 153.95 162.85 154.3 162.95 154.7C163.4 155.95 163.35 159.1 161.55 161.55Z"
              fill="#C5DFFF"
            />
            <path
              d="M158.2 160C156.5 162.3 154.55 163.25 152.9 163.8C151.3 164.35 150.2 164.1 150.2 164.1C150.2 164.1 149.35 163.3 149.5 162.3C149.55 161.75 149.95 161.1 150.95 160.55C150.95 160.55 153.65 160.25 155.35 156.9C157.05 153.6 156.35 153.25 156.75 152.55C157.05 152.1 158.05 152.1 158.8 152.55C159.15 152.75 159.4 153.05 159.55 153.45C159.95 154.7 159.9 157.7 158.2 160Z"
              fill="#E1ECFF"
            />
            <path
              d="M158.2 160C156.5 162.3 154.55 163.25 152.9 163.8C151.3 164.35 150.2 164.1 150.2 164.1C150.2 164.1 149.35 163.3 149.5 162.3C151.25 162.2 154.85 161.75 156.65 159.15C158.4 156.6 158.75 153.9 158.85 152.6C159.2 152.8 159.45 153.1 159.6 153.5C159.95 154.7 159.9 157.7 158.2 160Z"
              fill="#C5DFFF"
            />
            <path
              d="M156.85 164.45C156.9 165.9 156.55 167.1 156.15 168C155.6 169.15 155 169.75 155 169.75C155 169.75 142.35 174.2 129.05 163.1C122.2 157.4 116.7 149.95 113 144.1C109.5 138.55 107.55 134.4 107.55 134.4C107.55 134.4 106.5 131.15 108.45 128.35C109.05 127.45 109.95 126.6 111.35 125.9C113.7 124.7 115.65 124.6 117.2 125C119.8 125.65 121.25 127.6 121.25 127.6C121.25 127.6 123.2 131.9 126.1 137.2C129.5 143.35 134.2 150.85 138.7 154.35C147.05 160.85 154 158.35 154 158.35C154 158.35 154.75 159.1 155.5 160.25C156.05 161.3 156.8 162.8 156.85 164.45Z"
              fill="#E1ECFF"
            />
            <path
              d="M125.95 137.1C124.9 138.75 122.85 141.2 119.05 142.6C116.6 143.55 114.45 143.9 112.9 144.05C109.4 138.5 107.45 134.35 107.45 134.35C107.45 134.35 105.65 128.7 111.2 125.8C117.45 122.55 121.1 127.5 121.1 127.5C121.1 127.5 123.05 131.85 125.95 137.1Z"
              fill="#C5DFFF"
            />
            <path
              d="M156.1 167.95C155.55 169.1 154.95 169.7 154.95 169.7C154.95 169.7 142.3 174.15 129 163.05C122.15 157.35 116.65 149.9 112.95 144.05C109.45 138.5 107.5 134.35 107.5 134.35C107.5 134.35 106.45 131.1 108.4 128.3C110.05 132.05 117.1 147.35 126.05 156.15C136.3 166.2 141.85 167.45 151.7 167.85C153.3 167.9 154.8 167.95 156.1 167.95Z"
              fill="#C5DFFF"
            />
            <path
              d="M155.35 160.2C152.8 160.95 149.25 161.5 145.55 160.35C138.65 158.2 133 153.85 127.45 145.5C122.9 138.6 118.5 128.4 117.1 124.95C119.7 125.6 121.15 127.55 121.15 127.55C121.15 127.55 123.1 131.85 126 137.15C129.4 143.3 134.1 150.8 138.6 154.3C146.95 160.8 153.9 158.3 153.9 158.3C153.9 158.3 154.6 159 155.35 160.2Z"
              fill="#F8FBFF"
            />
            <path
              d="M120.7 152.35C119.45 152.35 118.65 152.05 118.6 152.05C118.25 151.9 118.05 151.5 118.2 151.15C118.35 150.8 118.75 150.6 119.1 150.75C119.2 150.8 121.55 151.6 124.7 149.9C127.85 148.15 128.6 145.05 128.6 145.05C128.7 144.7 129.05 144.45 129.4 144.55C129.75 144.65 130 145 129.9 145.35C129.85 145.5 129.05 149.05 125.3 151.1C123.55 152.1 121.9 152.35 120.7 152.35Z"
              fill="#C5DFFF"
            />
            <path
              d="M130.25 163.55C129.85 163.55 129.55 163.25 129.55 162.85C129.55 162.45 129.85 162.15 130.25 162.15C130.3 162.15 133.4 162.1 135.15 159.95C136.95 157.75 136.6 154.65 136.6 154.6C136.55 154.2 136.85 153.9 137.2 153.85C137.55 153.8 137.9 154.1 137.95 154.45C137.95 154.6 138.35 158.15 136.2 160.8C134.05 163.55 130.4 163.55 130.25 163.55Z"
              fill="#C5DFFF"
            />
            <path
              d="M141.25 169.4C141 169.4 140.7 169.25 140.6 168.95C140.45 168.6 140.65 168.2 141 168.05C141.05 168.05 143.85 166.9 144.6 163.85C145.35 160.75 144.3 158.95 144.25 158.9C144.05 158.6 144.15 158.15 144.45 157.95C144.75 157.75 145.2 157.85 145.4 158.15C145.45 158.25 146.85 160.5 145.9 164.15C144.95 167.9 141.6 169.25 141.45 169.3C141.4 169.4 141.35 169.4 141.25 169.4Z"
              fill="#C5DFFF"
            />
            <path
              d="M126.35 131.1C126.35 131.1 126.25 131.7 125.9 132.6C125.2 134.3 123.55 137.1 119.8 139.55C114 143.3 108.85 141.7 108.85 141.7C108.85 141.7 105.15 136.85 104.4 130.15C103.95 126.3 106.5 123.3 109.8 121.85C112.25 120.8 115.1 120.6 117.4 121.6C122.85 124.05 126.35 131.1 126.35 131.1Z"
              fill="#1C3177"
            />
            <path
              d="M126.35 131.1C126.35 131.1 126.25 131.7 125.9 132.6C125.9 132.55 125.85 132.55 125.85 132.5C121.2 126.35 117.55 125.1 117.55 125.1C117.55 125.1 116.2 128.3 111.75 126.45C108.65 125.2 109.2 123 109.85 121.85C112.3 120.8 115.15 120.6 117.45 121.6C122.85 124.05 126.35 131.1 126.35 131.1Z"
              fill="#384D89"
            />
            <path
              d="M65.6 104.65C64.65 104.5 63.75 105.1 63.55 106C63.1 107.9 62.4 111.15 62.1 113.65C61.85 115.75 61.75 117.5 61.7 118.7C61.65 119.55 62.3 120.35 63.15 120.5C64.15 120.65 65.05 119.95 65.15 118.95C65.25 117.4 65.5 115.05 66.05 112.35C66.55 109.8 66.9 108 67.15 106.8C67.3 105.8 66.6 104.85 65.6 104.65Z"
              fill="#1C3177"
            />
            <path
              d="M56.9501 110C57.2001 109 58.2501 108.45 59.2001 108.9C60.7001 109.55 62.9001 110.5 65.0001 111.25C67.1501 112 69.1501 112.75 70.4001 113.25C71.2501 113.55 71.7001 114.45 71.5001 115.35C71.2501 116.3 70.2501 116.9 69.3001 116.6C67.6501 116.15 65.0501 115.3 62.3001 114.15C59.8501 113.1 58.4501 112.3 57.6001 111.8C57.0501 111.4 56.8001 110.7 56.9501 110Z"
              fill="#1C3177"
            />
            <path
              d="M87.1002 92.4499C85.9002 92.2499 84.7502 93.0499 84.4502 94.2499C83.9002 96.7499 83.1002 100.95 82.7502 104.25C82.5002 107 82.3502 109.25 82.3502 110.8C82.3002 111.95 83.1502 112.9 84.2502 113.05C85.5502 113.25 86.7002 112.3 86.8002 111C86.9002 109 87.2002 105.95 87.7502 102.45C88.3002 99.0999 88.7502 96.7499 89.0002 95.1999C89.3002 93.8999 88.4002 92.6499 87.1002 92.4499Z"
              fill="#1C3177"
            />
            <path
              d="M76.0002 99.6499C76.3002 98.3499 77.7002 97.6499 78.9002 98.1499C80.8502 98.9499 83.7002 100.1 86.4502 101.05C89.2502 102 91.8502 102.9 93.5002 103.5C94.6002 103.9 95.2502 105.05 94.9502 106.2C94.6502 107.45 93.3502 108.25 92.1002 107.9C89.9502 107.35 86.6002 106.35 83.0002 104.9C79.8002 103.6 77.9502 102.6 76.9002 101.95C76.2002 101.4 75.8002 100.5 76.0002 99.6499Z"
              fill="#1C3177"
            />
            <path
              d="M256.35 188C256.35 188 258.9 188.75 260.75 190.9C262.6 193.1 262.85 196.65 262.85 196.65L272.95 191.95C272.95 191.95 267.85 193.9 266.15 190.5C264.45 187.1 270.1 181.7 270.1 181.7C270.1 181.7 263.85 186.8 261.4 186.05C258.95 185.3 258.55 182.25 258.55 182.25L256.35 188Z"
              fill="#FEC272"
            />
            <path
              d="M246.8 186.85L248.6 186.9L251.4 166.4L245.05 165.2L246.8 186.85Z"
              fill="#D2E9FF"
            />
            <path
              d="M251.2 186.95L255.4 167.75L261.45 170.7L252.3 187.45L251.2 186.95Z"
              fill="#D2E9FF"
            />
            <path
              d="M51.1001 90.05L50.0501 92.35L28.1001 85.6L31.0501 76.95L51.1001 90.05Z"
              fill="#FEC272"
            />
            <path
              d="M54.3999 82.4499L52.4499 85.25L27.6499 66.3499L34.4999 59.2L54.3999 82.4499Z"
              fill="#FEC272"
            />
          </svg>